<svg version="1.1" id="Layer_1" xmlns="http://www.w3.org/2000/svg" xmlns:xlink="http://www.w3.org/1999/xlink" x="0px" y="0px"
	 width="100%" viewBox="0 0 569 337" enable-background="new 0 0 569 337" xml:space="preserve">

<path fill="#F9F8F8" opacity="1.000000" stroke="none" 
	d="
M425.562775,198.978760 
	C425.467133,191.995117 425.109070,185.001968 425.362152,178.030975 
	C425.550842,172.834030 424.700226,168.143387 421.842255,163.395172 
	C423.789032,159.940063 421.589172,160.144287 419.813843,160.009155 
	C417.558685,156.242264 415.303558,152.475357 413.285706,148.129211 
	C413.534363,143.973343 413.248688,140.595551 408.573975,140.155212 
	C407.640869,138.565384 406.707764,136.975555 405.799561,134.707626 
	C405.272736,133.352493 404.721069,132.675491 404.169403,131.998474 
	C404.169403,131.998474 403.822723,131.761368 403.883118,131.120483 
	C403.089996,129.361359 402.236420,128.243103 401.382874,127.124832 
	C400.571838,125.719139 399.760803,124.313446 398.952637,122.186577 
	C397.260101,118.659576 395.564728,115.853745 393.869385,113.047913 
	C391.247253,108.353523 388.625153,103.659126 385.974854,98.240585 
	C384.977386,96.006989 384.008057,94.497528 383.038727,92.988068 
	C378.987183,85.572739 374.935608,78.157402 371.228424,70.161835 
	C372.168365,68.012238 375.957245,66.897392 372.265106,64.717743 
	C374.840240,63.208035 377.269867,60.869766 380.025146,60.385876 
	C384.001953,59.687458 388.215088,60.334412 392.723083,61.022964 
	C394.135162,62.071304 395.151581,62.503983 396.167969,62.936668 
	C399.734863,68.854752 403.471344,74.678345 406.833008,80.710800 
	C413.615448,92.881943 420.194153,105.166618 426.610657,118.180496 
	C425.605560,121.681244 426.272858,123.268028 429.463928,122.841057 
	C432.293518,127.873390 435.123077,132.905716 438.500031,138.911530 
	C440.332916,134.901108 441.812469,131.663742 443.688538,128.096680 
	C444.085022,127.766975 444.105743,127.379471 444.105743,127.379471 
	C444.105743,127.379471 444.026031,127.170647 444.456482,127.063370 
	C447.384247,122.764671 449.729553,118.472931 452.413696,114.404747 
	C456.713074,107.888466 461.331970,101.575233 462.724213,93.617470 
	C462.857666,92.854568 463.657196,92.231804 463.936890,91.466972 
	C465.613220,86.882759 467.227936,82.276001 468.863281,77.676796 
	C468.863281,77.676796 468.848938,77.286385 469.361328,77.065559 
	C470.079803,75.971725 470.285858,75.098724 470.491882,74.225716 
	C471.605591,71.997856 472.719330,69.769997 474.396179,67.223068 
	C475.247620,66.149513 475.535889,65.395027 475.824158,64.640549 
	C478.088440,63.225483 480.194092,61.156231 482.656677,60.559139 
	C485.811554,59.794197 489.266479,59.985443 492.569672,60.168705 
	C500.941925,60.633183 504.688385,67.421814 500.855835,74.920403 
	C486.432281,103.140938 472.007294,131.360748 456.941254,159.862991 
	C455.912201,161.219238 455.524719,162.293320 455.137238,163.367401 
	C451.640411,169.169922 452.973083,175.594238 452.804047,181.813309 
	C452.673187,186.627533 452.713867,191.446411 452.105774,196.641235 
	C445.042603,197.263550 444.286743,198.601654 446.530090,204.639786 
	C446.961121,205.799973 446.097015,208.615967 445.341309,208.815491 
	C443.321106,209.348846 440.921051,209.241135 438.912720,208.615326 
	C438.146851,208.376694 437.874725,206.055740 437.673431,204.641678 
	C437.468658,203.203140 437.628204,201.712738 437.628204,200.245056 
	C437.143860,200.112778 436.659515,199.980499 436.175171,199.848221 
	C434.672760,201.977341 433.170349,204.106445 432.236511,205.429825 
	C429.542084,202.825272 427.552429,200.902008 425.562775,198.978760 
M439.650818,185.203934 
	C439.973969,183.946869 440.297119,182.689804 440.620300,181.432739 
	C440.233002,181.192780 439.845703,180.952805 439.458405,180.712845 
	C438.663330,181.414703 437.180695,182.171402 437.231262,182.805847 
	C437.310913,183.804306 438.422424,184.720505 439.650818,185.203934 
z"/>
<path fill="#F9F8F8" opacity="1.000000" stroke="none" 
	d="
M214.251312,189.999985 
	C214.291595,150.515488 214.321045,111.530922 214.379593,72.546410 
	C214.394043,62.933571 217.193344,60.191925 226.925522,60.067902 
	C228.590057,60.046692 230.257614,59.985500 231.919159,60.054401 
	C238.569839,60.330204 241.151428,62.999992 241.157410,69.673256 
	C241.204559,122.319977 241.237350,174.966721 241.273941,227.613449 
	C241.276489,231.267395 241.274261,234.921341 241.274261,239.172180 
	C249.913971,239.172180 258.179626,239.293396 266.439514,239.127792 
	C271.594849,239.024429 276.163025,239.735962 278.490204,245.079208 
	C280.490021,249.670837 279.095520,260.969360 275.665924,263.500031 
	C273.577972,265.040710 270.534668,265.938843 267.902283,265.980713 
	C253.744904,266.205933 239.581757,266.094513 225.420731,266.052948 
	C218.130249,266.031555 214.684280,262.876617 214.489243,255.471573 
	C214.243652,246.148010 214.392334,236.814133 214.365555,227.484726 
	C214.330170,215.156464 214.289581,202.828201 214.251312,189.999985 
z"/>
<path fill="#F9F8F8" opacity="1.000000" stroke="none" 
	d="
M89.538025,144.150681 
	C93.659515,131.000183 97.721336,117.830589 101.919922,104.704758 
	C105.821426,92.507683 109.894661,80.365639 113.837112,68.181519 
	C115.123924,64.204643 116.710869,60.339203 121.615021,60.351673 
	C126.385468,60.363796 128.317062,63.948875 129.645599,67.991203 
	C137.587112,92.154831 145.602859,116.294067 153.534241,140.460999 
	C160.464798,161.578415 167.315048,182.722198 174.205215,203.852875 
	C175.969238,209.262848 177.750061,214.667313 179.119019,220.498428 
	C173.342102,220.522842 169.994080,218.164734 171.256195,215.228607 
	C173.640930,209.680786 170.052612,205.338684 169.739670,200.352982 
	C166.859222,200.755020 164.479736,200.764694 162.321304,201.460312 
	C158.636215,202.647949 157.296951,200.266525 156.522430,197.720856 
	C154.901535,192.393463 154.224121,191.945999 149.423035,193.607162 
	C149.966064,199.596390 150.483032,205.298203 150.744629,210.892914 
	C150.003082,210.524399 149.516861,210.262970 148.987701,209.660370 
	C148.103958,207.875168 147.263168,206.431122 146.422379,204.987061 
	C140.951523,188.824127 135.470612,172.664581 130.014175,156.496780 
	C127.377876,148.685242 124.787621,140.858154 121.724731,131.685013 
	C119.400856,138.529480 117.527290,144.047653 115.087997,149.541901 
	C113.571281,143.194199 112.620285,136.870453 111.609032,130.145981 
	C108.046021,131.126022 106.017990,132.495163 106.611725,136.419998 
	C107.600151,142.953812 101.402451,151.168472 94.920677,153.132401 
	C93.017754,153.708969 90.967041,155.809158 90.201675,157.703094 
	C88.684837,161.456558 88.939034,166.166763 86.802765,169.378357 
	C82.448814,175.923950 83.014618,182.912064 82.776985,190.174118 
	C83.036095,190.898895 83.517891,191.449448 84.259048,192.220032 
	C84.012070,193.960037 83.505730,195.480026 82.698967,196.844788 
	C81.126945,195.590118 79.855347,194.490646 78.583748,193.391190 
	C78.381927,194.967697 77.952980,196.554062 78.021042,198.118835 
	C78.222191,202.743607 76.392723,204.280960 71.971519,202.604630 
	C72.821732,198.238220 73.649300,194.260910 74.476868,190.283585 
	C74.730141,189.412094 74.983414,188.540604 75.739548,187.273544 
	C77.982468,180.681381 79.722534,174.484772 81.462601,168.288177 
	C81.878372,166.940079 82.294151,165.591980 82.902679,163.877304 
	C83.095436,163.510727 83.118362,163.451645 83.118362,163.451645 
	C83.132713,163.210037 83.147072,162.968414 83.638405,162.329193 
	C84.466835,160.297028 84.818283,158.662415 85.169739,157.027817 
	C86.068176,154.229889 86.966606,151.431961 88.445808,148.198456 
	C89.197067,146.558807 89.367546,145.354752 89.538025,144.150681 
M163.207977,186.314163 
	C162.766846,185.699692 162.325714,185.085236 161.884567,184.470764 
	C161.632690,184.596634 161.380814,184.722488 161.128922,184.848343 
	C161.590439,187.098175 162.051956,189.348022 162.513474,191.597870 
	C163.107162,191.525894 163.700867,191.453918 164.294571,191.381958 
	C164.029556,189.908813 163.764557,188.435684 163.207977,186.314163 
z"/>
<path fill="#F9F8F8" opacity="1.000000" stroke="none" 
	d="
M330.055908,238.978806 
	C348.012756,239.034210 365.969604,239.139435 383.926422,239.129379 
	C398.568268,239.121185 400.553467,241.193253 399.311218,256.603241 
	C398.933502,257.729126 398.959869,258.362396 398.986206,258.995697 
	C398.860413,259.565308 398.734619,260.134888 397.969086,260.873657 
	C396.590973,262.121063 395.852570,263.199280 395.114197,264.277466 
	C393.290649,264.863342 391.468811,265.953033 389.643341,265.959259 
	C363.781494,266.047485 337.919128,265.990173 312.056915,265.954681 
	C311.569305,265.954010 311.081848,265.790802 310.284729,265.051880 
	C310.251251,262.768311 310.527435,261.136230 310.829041,259.353973 
	C308.339661,259.662201 306.397888,259.902649 304.456116,260.143066 
	C304.456116,260.143066 304.423035,260.011505 304.584991,259.462463 
	C304.363983,255.599289 303.981018,252.285202 303.598022,248.971115 
	C303.476593,229.096741 303.348846,209.222382 303.239380,189.347946 
	C303.218384,185.536621 303.269501,181.724899 303.759277,177.444305 
	C309.061890,175.701920 311.800354,173.951859 310.411621,167.631393 
	C309.173096,161.994675 308.364258,155.578491 312.271393,150.251892 
	C312.880951,151.890823 313.219147,153.277832 313.557312,154.664856 
	C313.806610,154.322922 314.055939,153.981003 314.305237,153.639069 
	C316.303894,154.643860 319.537262,155.218903 320.065125,156.735580 
	C321.534332,160.956924 323.502930,161.184357 326.886688,159.237961 
	C327.647949,158.800064 328.810883,159.060425 329.788879,158.999344 
	C329.857788,179.384705 329.933228,199.770035 329.991211,220.155426 
	C330.006287,225.461472 329.966888,230.767670 329.508667,236.532043 
	C328.551910,237.408615 328.038971,237.826981 327.526031,238.245331 
	C328.369324,238.489807 329.212616,238.734299 330.055908,238.978806 
M317.709869,248.105042 
	C317.521606,247.573822 317.333344,247.042618 317.145050,246.511398 
	C316.871918,246.635468 316.598785,246.759552 316.325653,246.883636 
	C316.644653,247.430481 316.963654,247.977325 317.709869,248.105042 
M334.450836,261.712006 
	C334.714508,261.988770 334.978180,262.265533 335.241852,262.542297 
	C335.356384,262.432983 335.576477,262.234650 335.570221,262.227173 
	C335.324158,261.935333 335.057465,261.660858 334.450836,261.712006 
z"/>
<path fill="#F9F8F8" opacity="1.000000" stroke="none" 
	d="
M329.905701,158.582336 
	C328.810883,159.060425 327.647949,158.800064 326.886688,159.237961 
	C323.502930,161.184357 321.534332,160.956924 320.065125,156.735580 
	C319.537262,155.218903 316.303894,154.643860 314.305237,153.639069 
	C314.055939,153.981003 313.806610,154.322922 313.557312,154.664856 
	C313.219147,153.277832 312.880951,151.890823 312.224548,149.867493 
	C311.270874,146.154129 310.635437,143.077057 310.274475,139.795746 
	C311.812103,137.491837 313.075256,135.392166 314.338409,133.292496 
	C314.890015,133.735229 315.441620,134.177948 315.993225,134.620682 
	C315.425568,132.891541 314.857941,131.162399 314.209534,129.187256 
	C312.277130,132.456223 310.638550,135.228104 308.647400,137.994125 
	C307.529877,137.325500 306.764954,136.662750 306.161316,135.683395 
	C309.074127,130.806412 308.586212,129.692154 303.528778,128.986588 
	C303.491699,122.633873 303.454620,116.281158 303.880981,109.297195 
	C304.560150,107.733665 304.960327,106.802040 304.963684,105.868980 
	C305.007690,93.671059 305.016571,81.472832 304.961243,69.275009 
	C304.956360,68.198349 304.440063,67.124008 304.161316,66.048584 
	C304.275574,65.470650 304.389832,64.892700 305.083618,64.134537 
	C306.117950,63.333126 306.572723,62.711926 307.027527,62.090725 
	C312.990417,61.660534 319.019409,60.510277 324.893311,61.049599 
	C328.907166,61.418140 330.077789,65.555031 330.053925,69.621910 
	C329.968811,84.109909 330.021393,98.598709 329.505249,113.564835 
	C324.772217,116.830254 327.881531,120.960724 327.222229,124.402580 
	C327.153687,124.760399 328.873993,125.460907 329.764313,126.002411 
	C329.846588,128.380127 329.928864,130.757828 329.540100,133.573395 
	C328.146057,134.741776 327.117706,135.374344 326.325531,136.226471 
	C325.217926,137.417877 324.535706,139.369202 323.221313,139.918732 
	C321.239563,140.747314 318.868835,140.645737 316.489716,140.962662 
	C315.866364,143.118774 315.147522,145.605148 314.259277,148.677475 
	C316.974640,149.286102 321.150940,149.077103 321.958038,150.624924 
	C324.095703,154.724442 326.843201,153.438980 329.783386,153.002136 
	C329.863098,154.723206 329.942780,156.444260 329.905701,158.582336 
z"/>
<path fill="#F9F8F8" opacity="1.000000" stroke="none" 
	d="
M82.999390,197.000000 
	C83.505730,195.480026 84.012070,193.960037 84.236313,191.923431 
	C83.636032,190.937836 83.317848,190.468872 82.999672,189.999908 
	C83.014618,182.912064 82.448814,175.923950 86.802765,169.378357 
	C88.939034,166.166763 88.684837,161.456558 90.201675,157.703094 
	C90.967041,155.809158 93.017754,153.708969 94.920677,153.132401 
	C101.402451,151.168472 107.600151,142.953812 106.611725,136.419998 
	C106.017990,132.495163 108.046021,131.126022 111.609032,130.145981 
	C112.620285,136.870453 113.571281,143.194199 114.829308,149.790100 
	C112.488205,158.489609 109.840065,166.916992 106.670380,175.675751 
	C105.592949,176.250259 105.037064,176.493378 104.481178,176.736496 
	C105.020866,177.168137 105.560555,177.599777 106.100243,178.031433 
	C104.500183,183.145142 102.900124,188.258850 100.769730,193.721497 
	C99.620483,194.731262 99.001579,195.392090 98.382675,196.052917 
	C98.905937,196.364624 99.429199,196.676315 99.952454,196.988022 
	C99.596138,198.204819 99.239815,199.421631 98.324608,200.866943 
	C96.713882,201.204178 95.662041,201.312897 94.287025,201.455017 
	C95.189377,203.647141 95.916298,205.413071 96.643219,207.179016 
	C95.438797,211.222519 94.234367,215.266037 92.489868,219.655823 
	C88.644630,220.869659 88.092758,222.183426 91.284981,224.104019 
	C90.593071,226.524277 89.901161,228.944534 88.673279,231.684402 
	C87.584145,232.256149 87.030983,232.508286 86.477821,232.760406 
	C87.031837,233.189301 87.585861,233.618179 88.139885,234.047058 
	C86.623329,239.179916 85.106773,244.312759 82.991249,249.759674 
	C80.248032,252.412292 77.894844,254.596558 76.020493,257.134460 
	C74.276184,259.496307 75.049110,261.447540 77.999504,262.290924 
	C75.591209,263.570831 73.182915,264.850739 70.383438,265.645569 
	C69.490120,263.764587 69.049538,262.342743 68.473465,260.978027 
	C67.139732,257.818481 64.842514,254.710464 71.319588,254.511414 
	C74.860886,254.402618 78.245567,246.761948 75.987885,244.806152 
	C68.667175,238.464325 68.874161,230.205643 70.231972,221.985275 
	C70.763664,218.766357 73.585953,215.925781 75.365013,212.912903 
	C75.808243,213.192795 76.251465,213.472687 76.694695,213.752579 
	C76.603363,215.388779 76.512039,217.024963 76.387764,219.251495 
	C78.934242,217.936554 80.990952,217.236572 82.550186,215.938858 
	C83.547432,215.108856 84.681702,212.873993 84.257332,212.164627 
	C81.825363,208.099426 83.652283,207.230713 87.382698,206.857132 
	C88.263351,206.768921 89.271996,205.211166 89.706902,204.123550 
	C90.236343,202.799515 90.295151,201.263885 90.414589,199.808060 
	C90.487129,198.923843 90.289551,198.017487 90.149437,196.369766 
	C87.257179,198.917374 84.976448,203.012421 82.999390,197.000000 
M82.642784,225.649750 
	C81.605354,225.315277 80.567924,224.980820 79.530487,224.646347 
	C79.528397,225.545074 79.526299,226.443817 79.524208,227.342529 
	C80.562897,227.014771 81.601593,226.687012 82.642784,225.649750 
M97.445107,173.840714 
	C97.313683,173.041351 97.182259,172.241974 97.050827,171.442612 
	C96.452629,171.870483 95.854439,172.298355 95.256233,172.726227 
	C95.831474,173.256836 96.406715,173.787445 97.445107,173.840714 
M88.711220,191.551468 
	C88.988907,191.286774 89.266602,191.022079 89.544289,190.757401 
	C89.434608,190.642426 89.324928,190.527451 89.215248,190.412476 
	C88.937531,190.677490 88.659805,190.942505 88.711220,191.551468 
z"/>
<path fill="#F9F8F8" opacity="1.000000" stroke="none" 
	d="
M425.419861,199.429001 
	C427.552429,200.902008 429.542084,202.825272 432.236511,205.429825 
	C433.170349,204.106445 434.672760,201.977341 436.175171,199.848221 
	C436.659515,199.980499 437.143860,200.112778 437.628204,200.245056 
	C437.628204,201.712738 437.468658,203.203140 437.673431,204.641678 
	C437.874725,206.055740 438.146851,208.376694 438.912720,208.615326 
	C440.921051,209.241135 443.321106,209.348846 445.341309,208.815491 
	C446.097015,208.615967 446.961121,205.799973 446.530090,204.639786 
	C444.286743,198.601654 445.042603,197.263550 451.961914,197.028442 
	C452.475006,202.695663 452.559448,208.353699 452.098358,214.483154 
	C448.503448,216.754333 448.042084,224.714584 450.904846,226.791061 
	C451.256897,227.046432 451.870178,226.941605 452.362427,227.003693 
	C452.460938,231.705765 452.559448,236.407822 452.142609,241.592392 
	C449.047058,245.250214 448.679138,248.283813 452.203430,251.068039 
	C452.248749,252.118591 452.294098,253.169128 451.978027,254.731689 
	C451.718170,255.820755 451.819794,256.397797 451.921417,256.974823 
	C450.687012,263.278320 447.647644,265.989746 441.606262,266.176849 
	C426.851196,266.633820 425.279205,265.130249 425.260864,250.287384 
	C425.240112,233.484711 425.269379,216.681976 425.419861,199.429001 
z"/>
<path fill="#F9F8F8" opacity="1.000000" stroke="none" 
	d="
M151.000000,211.000000 
	C150.483032,205.298203 149.966064,199.596390 149.423035,193.607162 
	C154.224121,191.945999 154.901535,192.393463 156.522430,197.720856 
	C157.296951,200.266525 158.636215,202.647949 162.321304,201.460312 
	C164.479736,200.764694 166.859222,200.755020 169.739670,200.352982 
	C170.052612,205.338684 173.640930,209.680786 171.256195,215.228607 
	C169.994080,218.164734 173.342102,220.522842 179.144882,220.889343 
	C179.971603,221.948990 180.368301,223.041824 180.317047,224.557007 
	C175.619171,228.137695 179.086746,231.305099 180.179321,234.123123 
	C182.455505,239.994110 185.427002,245.624191 181.880859,252.361984 
	C185.872330,252.161102 187.608795,253.759857 186.744644,257.265137 
	C185.989594,260.327911 184.955917,263.242279 180.669281,261.428040 
	C179.826553,261.071381 178.669388,261.054352 177.770721,261.298462 
	C171.828247,262.912720 171.931122,262.950348 171.964371,256.760193 
	C171.983170,253.254532 173.151108,250.796707 176.457352,249.180939 
	C179.752869,247.570450 180.018906,245.309250 177.291367,242.561783 
	C176.404556,241.668503 176.120575,239.976166 175.966949,238.603836 
	C175.750519,236.670776 175.912186,234.695389 175.912186,232.705963 
	C171.369736,232.392441 167.239960,232.232727 163.141434,231.786301 
	C159.636353,231.404510 156.727005,227.473572 157.030075,223.920898 
	C157.546738,217.864365 155.788391,215.789124 149.591980,215.142212 
	C149.357407,214.622543 149.122833,214.102875 149.255981,213.248260 
	C150.082474,212.275558 150.541245,211.637787 151.000000,211.000000 
M161.250275,217.236313 
	C162.150940,217.851898 163.051620,218.467484 164.784134,219.651596 
	C163.418320,215.296494 163.418320,215.296494 161.250275,217.236313 
z"/>
<path fill="#F9F8F8" opacity="1.000000" stroke="none" 
	d="
M82.698959,196.844788 
	C84.976448,203.012421 87.257179,198.917374 90.149437,196.369766 
	C90.289551,198.017487 90.487129,198.923843 90.414589,199.808060 
	C90.295151,201.263885 90.236343,202.799515 89.706902,204.123550 
	C89.271996,205.211166 88.263351,206.768921 87.382698,206.857132 
	C83.652283,207.230713 81.825363,208.099426 84.257332,212.164627 
	C84.681702,212.873993 83.547432,215.108856 82.550186,215.938858 
	C80.990952,217.236572 78.934242,217.936554 76.387764,219.251495 
	C76.512039,217.024963 76.603363,215.388779 76.694695,213.752579 
	C76.251465,213.472687 75.808243,213.192795 75.365013,212.912903 
	C73.585953,215.925781 70.763664,218.766357 70.231972,221.985275 
	C68.874161,230.205643 68.667175,238.464325 75.987885,244.806152 
	C78.245567,246.761948 74.860886,254.402618 71.319588,254.511414 
	C64.842514,254.710464 67.139732,257.818481 68.473465,260.978027 
	C69.049538,262.342743 69.490120,263.764587 69.997986,265.534668 
	C67.849228,266.011292 65.692627,266.233032 63.540600,266.195129 
	C55.275520,266.049500 51.533802,260.866669 53.994690,252.875046 
	C55.660179,247.466415 57.535824,242.122482 59.825073,236.291077 
	C60.751232,233.850708 61.169792,231.868896 61.588348,229.887085 
	C62.109692,228.176910 62.631027,226.466736 63.662540,224.321182 
	C66.764771,216.921783 69.356827,209.957748 71.948868,202.993713 
	C76.392723,204.280960 78.222191,202.743607 78.021042,198.118835 
	C77.952980,196.554062 78.381927,194.967697 78.583748,193.391190 
	C79.855347,194.490646 81.126945,195.590118 82.698959,196.844788 
z"/>
<path fill="#F9F8F8" opacity="1.000000" stroke="none" 
	d="
M128.679916,200.221466 
	C132.681366,199.559662 134.544296,201.076126 135.681625,204.485214 
	C137.933762,211.235916 140.559021,217.862137 143.327209,225.342896 
	C128.943314,225.342896 115.179924,225.342896 100.701469,225.342896 
	C103.423149,217.473175 105.957146,209.783951 108.843994,202.229599 
	C109.231026,201.216782 111.378059,200.386734 112.747696,200.326431 
	C117.896866,200.099747 123.061607,200.226776 128.679916,200.221466 
z"/>
<path fill="#F9F8F8" opacity="1.000000" stroke="none" 
	d="
M389.665649,209.865173 
	C380.545654,209.878235 371.890259,209.801910 363.238373,209.942932 
	C359.423309,210.005096 357.833221,208.485229 357.843170,204.633392 
	C357.928711,171.516052 357.925323,138.398514 357.950714,105.281021 
	C357.951080,104.782104 357.804321,104.180611 358.025848,103.802559 
	C358.856415,102.385201 359.811554,101.040833 360.720032,99.669113 
	C361.782013,101.107521 363.713196,102.516579 363.762939,103.989166 
	C364.054779,112.632385 363.912506,121.290421 363.907074,129.943466 
	C363.892975,152.409225 363.873871,174.874969 363.857147,197.340729 
	C363.855652,199.323593 363.856934,201.306442 363.856934,203.830490 
	C371.891785,203.830490 379.640686,203.830704 387.389587,203.830185 
	C388.221710,203.830139 389.127228,203.610504 389.871979,203.864426 
	C391.989960,204.586655 395.724426,205.343094 395.820801,206.368286 
	C396.181488,210.204803 392.756104,209.756989 389.665649,209.865173 
z"/>
<path fill="#F9F8F8" opacity="1.000000" stroke="none" 
	d="
M149.614777,215.520935 
	C155.788391,215.789124 157.546738,217.864365 157.030075,223.920898 
	C156.727005,227.473572 159.636353,231.404510 163.141434,231.786301 
	C167.239960,232.232727 171.369736,232.392441 175.912186,232.705963 
	C175.912186,234.695389 175.750519,236.670776 175.966949,238.603836 
	C176.120575,239.976166 176.404556,241.668503 177.291367,242.561783 
	C180.018906,245.309250 179.752869,247.570450 176.457352,249.180939 
	C173.151108,250.796707 171.983170,253.254532 171.964371,256.760193 
	C171.931122,262.950348 171.828247,262.912720 177.770721,261.298462 
	C178.669388,261.054352 179.826553,261.071381 180.669281,261.428040 
	C184.955917,263.242279 185.989594,260.327911 186.744644,257.265137 
	C187.608795,253.759857 185.872330,252.161102 181.880859,252.361984 
	C185.427002,245.624191 182.455505,239.994110 180.179321,234.123123 
	C179.086746,231.305099 175.619171,228.137695 180.283630,224.909119 
	C183.778549,234.444138 187.116074,243.976730 189.856110,253.678085 
	C191.964249,261.142120 187.930710,265.975983 180.204773,266.101685 
	C178.050369,266.136780 175.894470,266.148315 173.740234,266.112305 
	C168.046875,266.017151 164.961258,263.705353 163.233200,258.172363 
	C162.147827,254.697159 161.166931,251.189316 160.348145,247.169281 
	C160.224823,246.090347 159.892532,245.538269 159.560242,244.986191 
	C156.871185,237.182236 154.182129,229.378265 151.630203,220.874985 
	C151.345200,219.446014 150.923050,218.716370 150.500885,217.986725 
	C150.213120,217.291046 149.925339,216.595367 149.614777,215.520935 
z"/>
<path fill="#F9F8F8" opacity="1.000000" stroke="none" 
	d="
M268.923706,123.000031 
	C268.906982,112.336639 268.759460,102.170181 268.999146,92.012856 
	C269.039581,90.298225 270.749634,88.623001 271.688293,86.929581 
	C272.795593,88.644005 274.858887,90.352470 274.869629,92.073738 
	C275.105652,129.893982 275.150116,167.715759 275.043762,205.536697 
	C275.039185,207.168411 273.450958,209.985474 272.243530,210.195099 
	C268.961761,210.764923 268.891479,207.900513 268.892426,205.473801 
	C268.903107,178.149216 268.912994,150.824615 268.923706,123.000031 
z"/>
<path fill="#F9F8F8" opacity="1.000000" stroke="none" 
	d="
M177.659805,112.999023 
	C177.611588,105.833771 177.524399,99.168449 177.538956,92.503365 
	C177.544266,90.075798 177.112885,86.755898 180.811142,87.233589 
	C182.014145,87.388969 183.672592,90.556175 183.689026,92.358925 
	C183.874405,112.687073 183.853638,133.018555 183.635010,153.346420 
	C183.615601,155.151291 181.819687,156.937057 180.848846,158.731689 
	C179.750916,156.818710 177.738724,154.922852 177.702530,152.989990 
	C177.456146,139.830704 177.625778,126.663620 177.659805,112.999023 
z"/>
<path fill="#F9F8F8" opacity="1.000000" stroke="none" 
	d="
M306.000000,136.000000 
	C306.764954,136.662750 307.529877,137.325500 308.670105,138.290741 
	C309.363617,139.062134 309.681793,139.531067 310.000000,140.000000 
	C310.635437,143.077057 311.270874,146.154129 311.953156,149.615601 
	C308.364258,155.578491 309.173096,161.994675 310.411621,167.631393 
	C311.800354,173.951859 309.061890,175.701920 303.884674,176.991760 
	C303.462952,174.628433 303.387756,172.248581 303.731506,169.426331 
	C304.637207,168.558411 305.123962,168.132889 305.610748,167.707382 
	C304.927948,167.468033 304.245148,167.228683 303.562347,166.989319 
	C303.467926,156.965927 303.373535,146.942520 303.706482,136.462616 
	C304.755890,136.004074 305.377930,136.002029 306.000000,136.000000 
z"/>
<path fill="#F9F8F8" opacity="1.000000" stroke="none" 
	d="
M329.903503,152.547333 
	C326.843201,153.438980 324.095703,154.724442 321.958038,150.624924 
	C321.150940,149.077103 316.974640,149.286102 314.259277,148.677475 
	C315.147522,145.605148 315.866364,143.118774 316.489716,140.962662 
	C318.868835,140.645737 321.239563,140.747314 323.221313,139.918732 
	C324.535706,139.369202 325.217926,137.417877 326.325531,136.226471 
	C327.117706,135.374344 328.146057,134.741776 329.419617,134.004425 
	C329.854645,140.029236 329.939148,146.060883 329.903503,152.547333 
z"/>
<path fill="#F9F8F8" opacity="1.000000" stroke="none" 
	d="
M468.578308,77.883911 
	C467.227936,82.276001 465.613220,86.882759 463.936890,91.466972 
	C463.657196,92.231804 462.857666,92.854568 462.724213,93.617470 
	C461.331970,101.575233 456.713074,107.888466 452.413696,114.404747 
	C449.729553,118.472931 447.384247,122.764671 444.561676,127.025635 
	C450.605530,114.010567 456.963867,100.920700 463.351166,87.844963 
	C464.950775,84.570320 466.643463,81.341118 468.578308,77.883911 
z"/>
<path fill="#F9F8F8" opacity="1.000000" stroke="none" 
	d="
M303.947266,66.395386 
	C304.440063,67.124008 304.956360,68.198349 304.961243,69.275009 
	C305.016571,81.472832 305.007690,93.671059 304.963684,105.868980 
	C304.960327,106.802040 304.560150,107.733665 304.022034,108.851410 
	C303.710815,94.938637 303.721985,80.840408 303.947266,66.395386 
z"/>
<path fill="#F9F8F8" opacity="1.000000" stroke="none" 
	d="
M71.971527,202.604630 
	C69.356827,209.957748 66.764771,216.921783 63.850971,223.986389 
	C67.023735,213.005875 70.518242,201.924744 74.244812,190.563599 
	C73.649300,194.260910 72.821732,198.238220 71.971527,202.604630 
z"/>
<path fill="#F9F8F8" opacity="1.000000" stroke="none" 
	d="
M78.282471,262.158936 
	C75.049110,261.447540 74.276184,259.496307 76.020493,257.134460 
	C77.894844,254.596558 80.248032,252.412292 82.746613,250.037659 
	C81.589111,254.010025 80.077278,258.018463 78.282471,262.158936 
z"/>
<path fill="#F9F8F8" opacity="1.000000" stroke="none" 
	d="
M452.503601,226.569061 
	C451.870178,226.941605 451.256897,227.046432 450.904846,226.791061 
	C448.042084,224.714584 448.503448,216.754333 451.946686,214.922928 
	C452.441956,218.639008 452.543365,222.386719 452.503601,226.569061 
z"/>
<path fill="#F9F8F8" opacity="1.000000" stroke="none" 
	d="
M329.885376,125.555176 
	C328.873993,125.460907 327.153687,124.760399 327.222229,124.402580 
	C327.881531,120.960724 324.772217,116.830254 329.387329,114.020111 
	C329.859467,117.701164 329.932953,121.404556 329.885376,125.555176 
z"/>
<path fill="#F9F8F8" opacity="1.000000" stroke="none" 
	d="
M81.239410,168.578140 
	C79.722534,174.484772 77.982468,180.681381 75.929153,186.989426 
	C77.416000,181.023285 79.216110,174.945694 81.239410,168.578140 
z"/>
<path fill="#F9F8F8" opacity="1.000000" stroke="none" 
	d="
M306.161316,135.683395 
	C305.377930,136.002029 304.755890,136.004074 303.822815,136.008026 
	C303.437073,133.953064 303.362366,131.896225 303.408203,129.412979 
	C308.586212,129.692154 309.074127,130.806412 306.161316,135.683395 
z"/>
<path fill="#F9F8F8" opacity="1.000000" stroke="none" 
	d="
M452.381470,250.708466 
	C448.679138,248.283813 449.047058,245.250214 451.992676,242.036163 
	C452.425201,244.781250 452.492340,247.565063 452.381470,250.708466 
z"/>
<path fill="#F9F8F8" opacity="1.000000" stroke="none" 
	d="
M304.489868,260.506927 
	C306.397888,259.902649 308.339661,259.662201 310.829041,259.353973 
	C310.527435,261.136230 310.251251,262.768311 309.949951,264.792908 
	C308.124420,263.747223 306.324005,262.308990 304.489868,260.506927 
z"/>
<path fill="#F9F8F8" opacity="1.000000" stroke="none" 
	d="
M408.622528,140.511871 
	C413.248688,140.595551 413.534363,143.973343 413.258545,147.776245 
	C411.553070,145.624527 410.112091,143.246536 408.622528,140.511871 
z"/>
<path fill="#F9F8F8" opacity="1.000000" stroke="none" 
	d="
M303.462646,249.398499 
	C303.981018,252.285202 304.363983,255.599289 304.571655,259.395935 
	C304.039978,256.527618 303.683624,253.176758 303.462646,249.398499 
z"/>
<path fill="#F9F8F8" opacity="1.000000" stroke="none" 
	d="
M393.922363,113.402603 
	C395.564728,115.853745 397.260101,118.659576 398.927216,121.869751 
	C397.257751,119.435158 395.616516,116.596222 393.922363,113.402603 
z"/>
<path fill="#F9F8F8" opacity="1.000000" stroke="none" 
	d="
M96.838776,206.896729 
	C95.916298,205.413071 95.189377,203.647141 94.287025,201.455017 
	C95.662041,201.312897 96.713882,201.204178 98.154099,201.138397 
	C98.039757,202.992371 97.537048,204.803391 96.838776,206.896729 
z"/>
<path fill="#F9F8F8" opacity="1.000000" stroke="none" 
	d="
M372.041077,64.910217 
	C375.957245,66.897392 372.168365,68.012238 371.290070,69.789291 
	C371.277252,68.365547 371.547150,66.734116 372.041077,64.910217 
z"/>
<path fill="#F9F8F8" opacity="1.000000" stroke="none" 
	d="
M91.528465,223.895386 
	C88.092758,222.183426 88.644630,220.869659 92.289078,219.994644 
	C92.342888,221.220367 92.057419,222.453552 91.528465,223.895386 
z"/>
<path fill="#F9F8F8" opacity="1.000000" stroke="none" 
	d="
M61.357780,230.119293 
	C61.169792,231.868896 60.751232,233.850708 60.049866,235.965515 
	C60.220448,234.182831 60.673832,232.267151 61.357780,230.119293 
z"/>
<path fill="#F9F8F8" opacity="1.000000" stroke="none" 
	d="
M146.407593,205.345032 
	C147.263168,206.431122 148.103958,207.875168 148.968857,210.068542 
	C148.929886,211.358597 148.866806,211.899338 148.803726,212.440079 
	C148.000076,210.194382 147.196442,207.948685 146.407593,205.345032 
z"/>
<path fill="#F9F8F8" opacity="1.000000" stroke="none" 
	d="
M429.407959,122.492928 
	C426.272858,123.268028 425.605560,121.681244 426.630737,118.524910 
	C427.715393,119.443810 428.533691,120.794304 429.407959,122.492928 
z"/>
<path fill="#F9F8F8" opacity="1.000000" stroke="none" 
	d="
M84.956337,157.288727 
	C84.818283,158.662415 84.466835,160.297028 83.815170,162.012070 
	C83.924286,160.578232 84.333611,159.063934 84.956337,157.288727 
z"/>
<path fill="#F9F8F8" opacity="1.000000" stroke="none" 
	d="
M383.060730,93.330360 
	C384.008057,94.497528 384.977386,96.006989 385.921387,97.899155 
	C384.958282,96.745453 384.020508,95.209045 383.060730,93.330360 
z"/>
<path fill="#F9F8F8" opacity="1.000000" stroke="none" 
	d="
M395.434753,264.189056 
	C395.852570,263.199280 396.590973,262.121063 397.722595,261.044189 
	C397.329010,262.063873 396.542145,263.082245 395.434753,264.189056 
z"/>
<path fill="#F9F8F8" opacity="1.000000" stroke="none" 
	d="
M100.158707,196.736572 
	C99.429199,196.676315 98.905937,196.364624 98.382675,196.052917 
	C99.001579,195.392090 99.620483,194.731262 100.558563,194.033005 
	C100.706802,194.825424 100.535881,195.655273 100.158707,196.736572 
z"/>
<path fill="#F9F8F8" opacity="1.000000" stroke="none" 
	d="
M419.828979,160.315430 
	C421.589172,160.144287 423.789032,159.940063 421.750580,163.027740 
	C420.890320,162.341522 420.367218,161.481598 419.828979,160.315430 
z"/>
<path fill="#F9F8F8" opacity="1.000000" stroke="none" 
	d="
M401.455688,127.475410 
	C402.236420,128.243103 403.089996,129.361359 403.910767,130.912308 
	C403.094849,130.171997 402.311676,128.998993 401.455688,127.475410 
z"/>
<path fill="#F9F8F8" opacity="1.000000" stroke="none" 
	d="
M106.313797,177.841461 
	C105.560555,177.599777 105.020866,177.168137 104.481178,176.736496 
	C105.037064,176.493378 105.592949,176.250259 106.471329,176.000549 
	C106.705002,176.546478 106.616173,177.098984 106.313797,177.841461 
z"/>
<path fill="#F9F8F8" opacity="1.000000" stroke="none" 
	d="
M303.436615,167.318756 
	C304.245148,167.228683 304.927948,167.468033 305.610748,167.707382 
	C305.123962,168.132889 304.637207,168.558411 303.858765,168.997437 
	C303.481659,168.556702 303.396271,168.102448 303.436615,167.318756 
z"/>
<path fill="#F9F8F8" opacity="1.000000" stroke="none" 
	d="
M330.050934,238.637543 
	C329.212616,238.734299 328.369324,238.489807 327.526031,238.245331 
	C328.038971,237.826981 328.551910,237.408615 329.392639,236.986694 
	C329.828979,237.420837 329.937469,237.858551 330.050934,238.637543 
z"/>
<path fill="#F9F8F8" opacity="1.000000" stroke="none" 
	d="
M88.364914,233.862305 
	C87.585861,233.618179 87.031837,233.189301 86.477821,232.760406 
	C87.030983,232.508286 87.584145,232.256149 88.460846,231.998444 
	C88.719566,232.554413 88.654755,233.115982 88.364914,233.862305 
z"/>
<path fill="#F9F8F8" opacity="1.000000" stroke="none" 
	d="
M396.050720,62.622650 
	C395.151581,62.503983 394.135162,62.071304 393.059692,61.278648 
	C393.978241,61.381992 394.955872,61.845318 396.050720,62.622650 
z"/>
<path fill="#F9F8F8" opacity="1.000000" stroke="none" 
	d="
M89.306526,144.409866 
	C89.367546,145.354752 89.197067,146.558807 88.658371,147.883057 
	C88.551788,146.891846 88.813408,145.780441 89.306526,144.409866 
z"/>
<path fill="#F9F8F8" opacity="1.000000" stroke="none" 
	d="
M455.420654,163.188766 
	C455.524719,162.293320 455.912201,161.219238 456.669373,160.079681 
	C456.594116,161.012848 456.149109,162.011490 455.420654,163.188766 
z"/>
<path fill="#F9F8F8" opacity="1.000000" stroke="none" 
	d="
M148.748199,212.612244 
	C148.866806,211.899338 148.929886,211.358597 149.011810,210.409698 
	C149.516861,210.262970 150.003082,210.524399 150.744644,210.892914 
	C150.541245,211.637787 150.082474,212.275558 149.303223,212.956955 
	C148.982758,213.000580 148.692688,212.784393 148.748199,212.612244 
z"/>
<path fill="#F9F8F8" opacity="1.000000" stroke="none" 
	d="
M404.184753,132.328735 
	C404.721069,132.675491 405.272736,133.352493 405.764191,134.400360 
	C405.202698,134.067123 404.701416,133.363052 404.184753,132.328735 
z"/>
<path fill="#F9F8F8" opacity="1.000000" stroke="none" 
	d="
M150.476562,218.303040 
	C150.923050,218.716370 151.345200,219.446014 151.641281,220.519867 
	C151.160889,220.115845 150.806549,219.367584 150.476562,218.303040 
z"/>
<path fill="#F9F8F8" opacity="1.000000" stroke="none" 
	d="
M159.506683,245.252396 
	C159.892532,245.538269 160.224823,246.090347 160.364838,246.789703 
	C159.932770,246.464172 159.692947,245.991379 159.506683,245.252396 
z"/>
<path fill="#F9F8F8" opacity="1.000000" stroke="none" 
	d="
M470.251160,74.440491 
	C470.285858,75.098724 470.079803,75.971725 469.509094,76.937759 
	C469.433105,76.238937 469.721771,75.447098 470.251160,74.440491 
z"/>
<path fill="#F9F8F8" opacity="1.000000" stroke="none" 
	d="
M475.550171,64.766907 
	C475.535889,65.395027 475.247620,66.149513 474.636963,66.970047 
	C474.635162,66.321823 474.955719,65.607544 475.550171,64.766907 
z"/>
<path fill="#F9F8F8" opacity="1.000000" stroke="none" 
	d="
M452.058594,256.806824 
	C451.819794,256.397797 451.718170,255.820755 451.846863,255.107086 
	C452.116699,255.526566 452.156219,256.082672 452.058594,256.806824 
z"/>
<path fill="#F9F8F8" opacity="1.000000" stroke="none" 
	d="
M399.189240,258.799347 
	C398.959869,258.362396 398.933502,257.729126 399.152802,257.032227 
	C399.396393,257.513397 399.394348,258.058197 399.189240,258.799347 
z"/>
<path fill="#F9F8F8" opacity="1.000000" stroke="none" 
	d="
M306.721375,62.121422 
	C306.572723,62.711926 306.117950,63.333126 305.348877,63.983406 
	C305.494843,63.392361 305.955048,62.772240 306.721375,62.121422 
z"/>
<path fill="#F9F8F8" opacity="1.000000" stroke="none" 
	d="
M83.010376,163.465546 
	C83.118362,163.451645 83.095436,163.510727 83.099770,163.500000 
	C83.104103,163.489288 82.902382,163.479431 83.010376,163.465546 
z"/>
<path fill="#F9F8F8" opacity="1.000000" stroke="none" 
	d="
M443.965240,127.388039 
	C444.105743,127.379471 444.085022,127.766975 443.987091,127.803696 
	C443.889160,127.840408 443.691589,127.642731 443.691589,127.642731 
	C443.691589,127.642731 443.824738,127.396606 443.965240,127.388039 
z"/>
<path fill="#F9F8F8" opacity="1.000000" stroke="none" 
	d="
M439.373932,185.437729 
	C438.422424,184.720505 437.310913,183.804306 437.231262,182.805847 
	C437.180695,182.171402 438.663330,181.414703 439.458405,180.712845 
	C439.845703,180.952805 440.233002,181.192780 440.620300,181.432739 
	C440.297119,182.689804 439.973969,183.946869 439.373932,185.437729 
z"/>
<path fill="#F9F8F8" opacity="1.000000" stroke="none" 
	d="
M163.353760,186.638351 
	C163.764557,188.435684 164.029556,189.908813 164.294571,191.381958 
	C163.700867,191.453918 163.107162,191.525894 162.513474,191.597870 
	C162.051956,189.348022 161.590439,187.098175 161.128922,184.848343 
	C161.380814,184.722488 161.632690,184.596634 161.884567,184.470764 
	C162.325714,185.085236 162.766846,185.699692 163.353760,186.638351 
z"/>
<path fill="#F9F8F8" opacity="1.000000" stroke="none" 
	d="
M82.776985,190.174118 
	C83.317848,190.468872 83.636032,190.937836 83.976944,191.703400 
	C83.517891,191.449448 83.036095,190.898895 82.776985,190.174118 
z"/>
<path fill="#F9F8F8" opacity="1.000000" stroke="none" 
	d="
M317.496277,248.314606 
	C316.963654,247.977325 316.644653,247.430481 316.325653,246.883636 
	C316.598785,246.759552 316.871918,246.635468 317.145050,246.511398 
	C317.333344,247.042618 317.521606,247.573822 317.496277,248.314606 
z"/>
<path fill="#F9F8F8" opacity="1.000000" stroke="none" 
	d="
M334.622162,261.548035 
	C335.057465,261.660858 335.324158,261.935333 335.570221,262.227173 
	C335.576477,262.234650 335.356384,262.432983 335.241852,262.542297 
	C334.978180,262.265533 334.714508,261.988770 334.622162,261.548035 
z"/>
<path fill="#F9F8F8" opacity="1.000000" stroke="none" 
	d="
M310.274475,139.795746 
	C309.681793,139.531067 309.363617,139.062134 309.022705,138.296600 
	C310.638550,135.228104 312.277130,132.456223 314.209534,129.187256 
	C314.857941,131.162399 315.425568,132.891541 315.993225,134.620682 
	C315.441620,134.177948 314.890015,133.735229 314.338409,133.292496 
	C313.075256,135.392166 311.812103,137.491837 310.274475,139.795746 
z"/>
<path fill="#F9F8F8" opacity="1.000000" stroke="none" 
	d="
M82.641541,226.004501 
	C81.601593,226.687012 80.562897,227.014771 79.524200,227.342529 
	C79.526299,226.443817 79.528397,225.545074 79.530487,224.646362 
	C80.567924,224.980820 81.605354,225.315277 82.641541,226.004501 
z"/>
<path fill="#F9F8F8" opacity="1.000000" stroke="none" 
	d="
M97.213531,174.079376 
	C96.406715,173.787445 95.831474,173.256836 95.256241,172.726227 
	C95.854439,172.298355 96.452629,171.870483 97.050827,171.442612 
	C97.182259,172.241974 97.313683,173.041351 97.213531,174.079376 
z"/>
<path fill="#F9F8F8" opacity="1.000000" stroke="none" 
	d="
M88.546646,191.379486 
	C88.659805,190.942505 88.937531,190.677490 89.215248,190.412476 
	C89.324928,190.527451 89.434608,190.642426 89.544296,190.757401 
	C89.266602,191.022079 88.988907,191.286774 88.546646,191.379486 
z"/>
<path fill="#F9F8F8" opacity="1.000000" stroke="none" 
	d="
M161.200897,216.888336 
	C163.418320,215.296494 163.418320,215.296494 164.784134,219.651596 
	C163.051620,218.467484 162.150940,217.851898 161.200897,216.888336 
z"/>
</svg>